<svg xmlns="http://www.w3.org/2000/svg" style="display:none">
  <symbol id="kaiju-nazogora" viewBox="0 0 220 240">
    <g stroke="#173023" stroke-width="6" stroke-linecap="round" stroke-linejoin="round">
      <path d="M47 201c7-22 22-33 43-34h40c21 1 36 12 43 34z" fill="#25536b"/>
      <path d="M64 213h92" fill="none"/>
      <path d="M70 66 52 34l36 14M150 66l18-32-36 14" fill="#ffd34d"/>
      <path d="M58 94c-21 15-30 33-28 54 2 24 17 42 41 50 16 5 66 5 82 0 24-8 39-26 41-50 2-21-7-39-28-54-2-33-22-54-54-54S60 61 58 94z" fill="#356b79"/>
      <path d="M65 105c-22 7-39 20-49 38 18 1 34-3 49-12M155 105c22 7 39 20 49 38-18 1-34-3-49-12" fill="#4f8a76"/>
      <path d="M84 82c8-9 18-14 30-14 12 0 22 5 30 14" fill="none"/>
      <circle cx="84" cy="112" r="9" fill="#fffdf2"/>
      <circle cx="136" cy="112" r="9" fill="#fffdf2"/>
      <circle cx="84" cy="112" r="3" fill="#173023" stroke="none"/>
      <circle cx="136" cy="112" r="3" fill="#173023" stroke="none"/>
      <path d="M89 145c12 8 30 8 42 0" fill="none"/>
      <path d="M98 164c-5-24 29-22 22-43-3-9-13-11-22-6" fill="none"/>
      <circle cx="110" cy="184" r="4" fill="#ffd34d"/>
      <path d="M77 58 66 35M99 47 95 20M122 47l4-27M144 58l11-23" fill="none"/>
      <path d="M76 199 64 224h36l-4-25M144 199l-4 25h36l-12-25" fill="#25536b"/>
      <path d="M54 159c-12 8-20 18-24 31M166 159c12 8 20 18 24 31" fill="none"/>
    </g>
  </symbol>

  <symbol id="hero-steel" viewBox="0 0 200 220">
    <g stroke="#173023" stroke-width="6" stroke-linecap="round" stroke-linejoin="round">
      <path d="M45 188c9-24 25-36 50-36h10c25 0 41 12 50 36z" fill="#d84b36"/>
      <path d="M71 188 59 214h36l3-26M129 188l12 26h-36l-3-26" fill="#5d7567"/>
      <path d="M62 92c0-32 17-54 38-54s38 22 38 54v19H62z" fill="#cfd8dc"/>
      <path d="M62 91h76M78 58h44M90 39l10-20 10 20" fill="none"/>
      <circle cx="83" cy="102" r="8" fill="#fffdf2"/>
      <circle cx="117" cy="102" r="8" fill="#fffdf2"/>
      <path d="M87 128c8 5 18 5 26 0" fill="none"/>
      <path d="M69 151h62l11 37H58z" fill="#f7fafc"/>
      <path d="M78 158h44M76 173h48M88 146l-13 43M112 146l13 43" fill="none"/>
      <path d="M51 117 22 149l22 14 28-34M149 117l29 32-22 14-28-34" fill="#d84b36"/>
      <path d="M143 83l20-13 13 18-25 19" fill="#ffd34d"/>
      <path d="M52 83 32 70 19 88l25 19" fill="#ffd34d"/>
    </g>
  </symbol>

  <symbol id="hero-health" viewBox="0 0 200 220">
    <g stroke="#173023" stroke-width="6" stroke-linecap="round" stroke-linejoin="round">
      <path d="M50 190c9-24 26-38 50-38s41 14 50 38z" fill="#12a7b0"/>
      <path d="M62 190 51 214h36l6-24M138 190l11 24h-36l-6-24" fill="#25536b"/>
      <path d="M61 71c11-23 24-36 39-36s28 13 39 36v40c0 25-17 43-39 43s-39-18-39-43z" fill="#fffdf2"/>
      <path d="M64 77c17-12 30-17 54-17 11 0 20 3 28 9-5-22-20-38-46-38-25 0-42 16-50 42z" fill="#80cfee"/>
      <circle cx="84" cy="103" r="7" fill="#173023" stroke="none"/>
      <circle cx="116" cy="103" r="7" fill="#173023" stroke="none"/>
      <path d="M88 126c7 6 17 6 24 0" fill="none"/>
      <path d="M74 154h52l14 39H60z" fill="#fffdf2"/>
      <path d="M100 163v22M89 174h22" fill="none"/>
      <path d="M54 120c-18 12-28 27-31 47 21-5 36-17 45-35M146 120c18 12 28 27 31 47-21-5-36-17-45-35" fill="#dff1d9"/>
      <path d="M142 49c17-8 27-7 35 2-12 4-22 11-30 22" fill="#22a65a"/>
    </g>
  </symbol>

  <symbol id="hero-city" viewBox="0 0 200 220">
    <g stroke="#173023" stroke-width="6" stroke-linecap="round" stroke-linejoin="round">
      <path d="M47 190c10-27 27-40 53-40s43 13 53 40z" fill="#35a853"/>
      <path d="M66 190 54 214h35l7-24M134 190l12 24h-35l-7-24" fill="#5d7567"/>
      <path d="M63 79c6-29 20-44 37-44s31 15 37 44v33c0 25-16 42-37 42s-37-17-37-42z" fill="#fffdf2"/>
      <path d="M55 80h90l-11-26h-68z" fill="#ffd34d"/>
      <path d="M79 54V35h42v19M55 80h90" fill="none"/>
      <circle cx="84" cy="104" r="7" fill="#173023" stroke="none"/>
      <circle cx="116" cy="104" r="7" fill="#173023" stroke="none"/>
      <path d="M87 126c9 5 17 5 26 0" fill="none"/>
      <path d="M70 154h60l9 38H61z" fill="#f7fafc"/>
      <path d="M78 163h44M82 178h36" fill="none"/>
      <path d="M46 116 18 131l10 24 31-14M154 116l28 15-10 24-31-14" fill="#35a853"/>
      <path d="M146 48h31v62M177 48l-22-14M177 75h-28M159 110l11 14 11-14" fill="none"/>
    </g>
  </symbol>

  <symbol id="hero-harbor" viewBox="0 0 200 220">
    <g stroke="#173023" stroke-width="6" stroke-linecap="round" stroke-linejoin="round">
      <path d="M46 190c11-27 29-40 54-40s43 13 54 40z" fill="#2676a6"/>
      <path d="M66 190 52 214h38l6-24M134 190l14 24h-38l-6-24" fill="#0e5a34"/>
      <path d="M62 80c8-30 21-45 38-45s30 15 38 45v32c0 25-16 42-38 42s-38-17-38-42z" fill="#fffdf2"/>
      <path d="M57 75c12-22 26-33 43-33s31 11 43 33c-23 8-63 8-86 0z" fill="#80cfee"/>
      <path d="M76 57h48M100 43V24M88 24h24" fill="none"/>
      <circle cx="84" cy="104" r="7" fill="#173023" stroke="none"/>
      <circle cx="116" cy="104" r="7" fill="#173023" stroke="none"/>
      <path d="M86 126c9 6 19 6 28 0" fill="none"/>
      <path d="M70 154h60l12 38H58z" fill="#f7fafc"/>
      <path d="M100 159v30M86 172c4 13 24 13 28 0M80 180l-12-11M120 180l12-11" fill="none"/>
      <path d="M52 120 22 143l19 20 28-31M148 120l30 23-19 20-28-31" fill="#2676a6"/>
      <path d="M36 176c16-9 29-9 44 0 15 9 29 9 44 0 15-9 28-9 42 0" fill="none"/>
    </g>
  </symbol>

  <symbol id="hero-lifeline" viewBox="0 0 200 220">
    <g stroke="#173023" stroke-width="6" stroke-linecap="round" stroke-linejoin="round">
      <path d="M47 190c9-25 26-38 53-38s44 13 53 38z" fill="#f5b82e"/>
      <path d="M66 190 54 214h36l6-24M134 190l12 24h-36l-6-24" fill="#25536b"/>
      <path d="M62 77c8-29 21-43 38-43s30 14 38 43v35c0 25-16 42-38 42s-38-17-38-42z" fill="#fffdf2"/>
      <path d="M65 72c14-20 27-29 35-29s21 9 35 29l-10 12H75z" fill="#f5b82e"/>
      <circle cx="84" cy="104" r="7" fill="#173023" stroke="none"/>
      <circle cx="116" cy="104" r="7" fill="#173023" stroke="none"/>
      <path d="M87 126c8 5 18 5 26 0" fill="none"/>
      <path d="M69 154h62l11 38H58z" fill="#fffdf2"/>
      <circle cx="100" cy="174" r="16" fill="#ffd34d"/>
      <path d="M100 151v10M100 187v10M77 174h10M113 174h10M84 158l7 7M116 158l-7 7M84 190l7-7M116 190l-7-7" fill="none"/>
      <path d="M54 116c-18 12-27 25-27 39 0 14 9 23 26 27M146 116c18 12 27 25 27 39 0 14-9 23-26 27" fill="none"/>
      <path d="M31 157h24M145 157h24" fill="#f5b82e"/>
    </g>
  </symbol>

  <symbol id="hero-industrial" viewBox="0 0 200 220">
    <g stroke="#173023" stroke-width="6" stroke-linecap="round" stroke-linejoin="round">
      <path d="M45 190c10-26 28-39 55-39s45 13 55 39z" fill="#ef7b2d"/>
      <path d="M66 190 52 214h38l6-24M134 190l14 24h-38l-6-24" fill="#5d7567"/>
      <path d="M61 79c8-31 21-46 39-46s31 15 39 46v34c0 24-16 41-39 41s-39-17-39-41z" fill="#fffdf2"/>
      <path d="M58 80h84l-10-27H68z" fill="#ef7b2d"/>
      <path d="M76 53c4-16 12-24 24-24s20 8 24 24" fill="none"/>
      <circle cx="84" cy="105" r="7" fill="#173023" stroke="none"/>
      <circle cx="116" cy="105" r="7" fill="#173023" stroke="none"/>
      <path d="M87 127c8 5 18 5 26 0" fill="none"/>
      <path d="M69 154h62l12 38H57z" fill="#fffdf2"/>
      <path d="M83 164h34M80 178h40" fill="none"/>
      <path d="M51 119 24 137l13 26 31-24M149 119l27 18-13 26-31-24" fill="#ef7b2d"/>
      <path d="M58 194l-10 21M78 196l-4 18M142 194l10 21M122 196l4 18" fill="#ffd34d"/>
      <path d="M142 60l26-21 13 13-30 24M167 39l-7-13" fill="none"/>
    </g>
  </symbol>
</svg>
